<svg xmlns="http://www.w3.org/2000/svg" version="1.1" xmlns:xlink="http://www.w3.org/1999/xlink" xmlns:svgjs="http://svgjs.dev/svgjs" width="1500" height="1500" viewBox="0 0 1500 1500"><rect width="1500" height="1500" fill="#ffffff"></rect><g transform="matrix(0.6666666666666666,0,0,0.6666666666666666,249.71659804827652,675.1401414400401)"><svg viewBox="0 0 397 60" data-background-color="#ffffff" preserveAspectRatio="xMidYMid meet" height="226" width="1500" xmlns="http://www.w3.org/2000/svg" xmlns:xlink="http://www.w3.org/1999/xlink"><g id="tight-bounds" transform="matrix(1,0,0,1,1.2192501958090816,0.9823214082430525)"><svg viewBox="0 0 395.52 58.993857575132154" height="58.993857575132154" width="395.52"><g><svg viewBox="0 0 479.22725678211424 71.47922869317692" height="58.993857575132154" width="395.52"><g transform="matrix(1,0,0,1,83.70725678211424,9.87882248943328)"><svg viewBox="0 0 395.52 51.72158371431036" height="51.72158371431036" width="395.52"><g id="textblocktransform"><svg viewBox="0 0 395.52 51.72158371431036" height="51.72158371431036" width="395.52" id="textblock"><g><svg viewBox="0 0 395.52 51.72158371431036" height="51.72158371431036" width="395.52"><g transform="matrix(1,0,0,1,0,0)"><svg width="395.52" viewBox="3.22 -36.38 283.01 37.010000000000005" height="51.72158371431036" data-palette-color="#333333"><g class="wordmark-text-0" data-fill-palette-color="primary" id="text-0"><path d="M25.44 0L3.22 0 3.22-36.38 25.2-36.38 25.2-32.47 7.62-32.47 7.62-20.31 24.02-20.31 24.02-16.41 7.62-16.41 7.62-3.91 25.44-3.91 25.44 0ZM49.51-21.14L49.51-21.14 45.75-20.12Q45.21-21.51 43.91-22.77 42.6-24.02 39.84-24.02L39.84-24.02Q37.35-24.02 35.69-22.86 34.03-21.7 34.03-19.97L34.03-19.97Q34.03-18.41 35.17-17.48 36.3-16.55 38.72-15.97L38.72-15.97 42.77-14.99Q46.41-14.11 48.2-12.28 50-10.45 50-7.62L50-7.62Q50-5.27 48.65-3.42 47.31-1.56 44.92-0.49 42.53 0.59 39.35 0.59L39.35 0.59Q35.18 0.59 32.46-1.25 29.73-3.08 29-6.54L29-6.54 32.96-7.52Q33.52-5.32 35.12-4.22 36.72-3.13 39.3-3.13L39.3-3.13Q42.21-3.13 43.96-4.38 45.7-5.64 45.7-7.37L45.7-7.37Q45.7-10.25 41.65-11.23L41.65-11.23 37.11-12.3Q33.35-13.21 31.59-15.06 29.83-16.92 29.83-19.73L29.83-19.73Q29.83-22.05 31.14-23.83 32.44-25.61 34.71-26.62 36.98-27.64 39.84-27.64L39.84-27.64Q43.92-27.64 46.23-25.84 48.53-24.05 49.51-21.14ZM51.7-27.29L65.82-27.29 65.82-23.73 51.7-23.73 51.7-27.29ZM55.81-6.69L55.81-33.79 59.96-33.79 59.96-7.81Q59.96-5.69 60.83-4.7 61.71-3.71 63.62-3.71L63.62-3.71Q64.03-3.71 64.48-3.76 64.94-3.81 65.47-3.91L65.47-3.91 66.35-0.15Q65.77 0.07 64.92 0.21 64.08 0.34 63.23 0.34L63.23 0.34Q59.93 0.34 57.87-1.61 55.81-3.56 55.81-6.69L55.81-6.69ZM77.82 0.63L77.82 0.63Q75.24 0.63 73.11-0.35 70.99-1.34 69.74-3.22 68.5-5.1 68.5-7.76L68.5-7.76Q68.5-10.11 69.43-11.56 70.35-13.01 71.9-13.85 73.45-14.7 75.32-15.11 77.19-15.53 79.09-15.77L79.09-15.77Q81.58-16.09 83.13-16.26 84.68-16.43 85.41-16.85 86.13-17.26 86.13-18.26L86.13-18.26 86.13-18.41Q86.13-21.02 84.7-22.47 83.27-23.93 80.36-23.93L80.36-23.93Q77.39-23.93 75.68-22.62 73.97-21.31 73.28-19.82L73.28-19.82 69.28-21.24Q70.35-23.73 72.15-25.12 73.94-26.51 76.05-27.08 78.17-27.64 80.22-27.64L80.22-27.64Q81.54-27.64 83.24-27.33 84.95-27.03 86.58-26.06 88.2-25.1 89.26-23.16 90.32-21.22 90.32-17.97L90.32-17.97 90.32 0 86.13 0 86.13-3.71 85.93-3.71Q85.51-2.83 84.51-1.82 83.51-0.81 81.87-0.09 80.22 0.63 77.82 0.63ZM78.46-3.13L78.46-3.13Q80.95-3.13 82.66-4.1 84.37-5.08 85.25-6.63 86.13-8.18 86.13-9.86L86.13-9.86 86.13-13.72Q85.86-13.4 84.97-13.15 84.07-12.89 82.91-12.7 81.76-12.5 80.66-12.37 79.56-12.23 78.9-12.16L78.9-12.16Q77.26-11.94 75.85-11.46 74.43-10.99 73.56-10.06 72.7-9.13 72.7-7.52L72.7-7.52Q72.7-5.35 74.32-4.24 75.94-3.13 78.46-3.13ZM93.4-27.29L107.51-27.29 107.51-23.73 93.4-23.73 93.4-27.29ZM97.5-6.69L97.5-33.79 101.65-33.79 101.65-7.81Q101.65-5.69 102.53-4.7 103.41-3.71 105.31-3.71L105.31-3.71Q105.73-3.71 106.18-3.76 106.63-3.81 107.17-3.91L107.17-3.91 108.05-0.15Q107.46 0.07 106.62 0.21 105.78 0.34 104.92 0.34L104.92 0.34Q101.63 0.34 99.56-1.61 97.5-3.56 97.5-6.69L97.5-6.69ZM122.94 0.59L122.94 0.59Q119.01 0.59 116.14-1.17 113.27-2.93 111.73-6.09 110.19-9.25 110.19-13.43L110.19-13.43Q110.19-17.63 111.71-20.83 113.22-24.02 115.97-25.83 118.71-27.64 122.4-27.64L122.4-27.64Q124.52-27.64 126.62-26.93 128.72-26.22 130.44-24.63 132.17-23.05 133.19-20.43 134.22-17.82 134.22-14.01L134.22-14.01 134.22-12.21 113.17-12.21 113.17-15.82 131.95-15.82 130.02-14.45Q130.02-17.19 129.16-19.31 128.31-21.44 126.61-22.66 124.91-23.88 122.4-23.88L122.4-23.88Q119.88-23.88 118.09-22.64 116.3-21.41 115.34-19.43 114.39-17.46 114.39-15.19L114.39-15.19 114.39-12.79Q114.39-9.69 115.47-7.54 116.54-5.4 118.47-4.28 120.4-3.17 122.94-3.17L122.94-3.17Q124.57-3.17 125.92-3.65 127.26-4.13 128.23-5.09 129.21-6.05 129.72-7.47L129.72-7.47 133.78-6.3Q133.14-4.25 131.64-2.7 130.14-1.15 127.92-0.28 125.7 0.59 122.94 0.59ZM138.71 0L138.71-36.38 143.98-36.38 156.33-6.2 156.77-6.2 169.13-36.38 174.57-36.38 174.57 0 170.25 0 170.25-27.64 169.91-27.64 158.46 0 154.5 0 143.2-27.64 142.86-27.64 142.86 0 138.71 0ZM188.48 0.63L188.48 0.63Q185.9 0.63 183.77-0.35 181.65-1.34 180.4-3.22 179.16-5.1 179.16-7.76L179.16-7.76Q179.16-10.11 180.09-11.56 181.01-13.01 182.56-13.85 184.11-14.7 185.98-15.11 187.85-15.53 189.75-15.77L189.75-15.77Q192.24-16.09 193.79-16.26 195.34-16.43 196.06-16.85 196.78-17.26 196.78-18.26L196.78-18.26 196.78-18.41Q196.78-21.02 195.36-22.47 193.93-23.93 191.02-23.93L191.02-23.93Q188.04-23.93 186.34-22.62 184.63-21.31 183.94-19.82L183.94-19.82 179.94-21.24Q181.01-23.73 182.81-25.12 184.6-26.51 186.71-27.08 188.83-27.64 190.88-27.64L190.88-27.64Q192.19-27.64 193.9-27.33 195.61-27.03 197.24-26.06 198.86-25.1 199.92-23.16 200.98-21.22 200.98-17.97L200.98-17.97 200.98 0 196.78 0 196.78-3.71 196.59-3.71Q196.17-2.83 195.17-1.82 194.17-0.81 192.52-0.09 190.88 0.63 188.48 0.63ZM189.12-3.13L189.12-3.13Q191.61-3.13 193.32-4.1 195.03-5.08 195.91-6.63 196.78-8.18 196.78-9.86L196.78-9.86 196.78-13.72Q196.52-13.4 195.62-13.15 194.73-12.89 193.57-12.7 192.41-12.5 191.32-12.37 190.22-12.23 189.56-12.16L189.56-12.16Q187.92-11.94 186.51-11.46 185.09-10.99 184.22-10.06 183.36-9.13 183.36-7.52L183.36-7.52Q183.36-5.35 184.98-4.24 186.6-3.13 189.12-3.13ZM225.64-21.14L225.64-21.14 221.88-20.12Q221.34-21.51 220.04-22.77 218.73-24.02 215.97-24.02L215.97-24.02Q213.48-24.02 211.82-22.86 210.16-21.7 210.16-19.97L210.16-19.97Q210.16-18.41 211.3-17.48 212.43-16.55 214.85-15.97L214.85-15.97 218.9-14.99Q222.54-14.11 224.33-12.28 226.13-10.45 226.13-7.62L226.13-7.62Q226.13-5.27 224.78-3.42 223.44-1.56 221.05-0.49 218.66 0.59 215.48 0.59L215.48 0.59Q211.31 0.59 208.59-1.25 205.86-3.08 205.13-6.54L205.13-6.54 209.09-7.52Q209.65-5.32 211.25-4.22 212.85-3.13 215.43-3.13L215.43-3.13Q218.34-3.13 220.08-4.38 221.83-5.64 221.83-7.37L221.83-7.37Q221.83-10.25 217.78-11.23L217.78-11.23 213.24-12.3Q209.48-13.21 207.72-15.06 205.96-16.92 205.96-19.73L205.96-19.73Q205.96-22.05 207.27-23.83 208.57-25.61 210.84-26.62 213.11-27.64 215.97-27.64L215.97-27.64Q220.05-27.64 222.36-25.84 224.66-24.05 225.64-21.14ZM227.83-27.29L241.95-27.29 241.95-23.73 227.83-23.73 227.83-27.29ZM231.94-6.69L231.94-33.79 236.09-33.79 236.09-7.81Q236.09-5.69 236.96-4.7 237.84-3.71 239.75-3.71L239.75-3.71Q240.16-3.71 240.61-3.76 241.07-3.81 241.6-3.91L241.6-3.91 242.48-0.15Q241.9 0.07 241.05 0.21 240.21 0.34 239.36 0.34L239.36 0.34Q236.06 0.34 234-1.61 231.94-3.56 231.94-6.69L231.94-6.69ZM257.37 0.59L257.37 0.59Q253.44 0.59 250.57-1.17 247.7-2.93 246.17-6.09 244.63-9.25 244.63-13.43L244.63-13.43Q244.63-17.63 246.14-20.83 247.66-24.02 250.4-25.83 253.15-27.64 256.84-27.64L256.84-27.64Q258.96-27.64 261.06-26.93 263.16-26.22 264.88-24.63 266.6-23.05 267.63-20.43 268.65-17.82 268.65-14.01L268.65-14.01 268.65-12.21 247.61-12.21 247.61-15.82 266.38-15.82 264.45-14.45Q264.45-17.19 263.6-19.31 262.74-21.44 261.05-22.66 259.35-23.88 256.84-23.88L256.84-23.88Q254.32-23.88 252.53-22.64 250.73-21.41 249.78-19.43 248.83-17.46 248.83-15.19L248.83-15.19 248.83-12.79Q248.83-9.69 249.9-7.54 250.98-5.4 252.9-4.28 254.83-3.17 257.37-3.17L257.37-3.17Q259.01-3.17 260.35-3.65 261.69-4.13 262.67-5.09 263.65-6.05 264.16-7.47L264.16-7.47 268.21-6.3Q267.58-4.25 266.08-2.7 264.57-1.15 262.35-0.28 260.13 0.59 257.37 0.59ZM276.75 0L272.6 0 272.6-27.29 276.61-27.29 276.61-23.14 276.9-23.14Q277.66-25.17 279.62-26.43 281.59-27.69 284.03-27.69L284.03-27.69Q284.49-27.69 285.18-27.67 285.86-27.66 286.23-27.64L286.23-27.64 286.23-23.39Q286.01-23.44 285.25-23.54 284.49-23.63 283.64-23.63L283.64-23.63Q281.66-23.63 280.1-22.8 278.54-21.97 277.65-20.53 276.75-19.09 276.75-17.24L276.75-17.24 276.75 0Z" fill="#333333" data-fill-palette-color="primary"></path></g></svg></g></svg></g></svg></g></svg></g><g><svg viewBox="0 0 71.4970321851747 71.47922869317692" height="71.47922869317692" width="71.4970321851747"><g><svg xmlns="http://www.w3.org/2000/svg" data-name="Layer 3" viewBox="1 1 62.015442504401754 62.000000025173996" x="0" y="0" height="71.47922869317692" width="71.4970321851747" class="icon-icon-0" data-fill-palette-color="accent" id="icon-0"><path d="M62 43H56A1 1 0 0 0 55 44V45H50V34.539A10 10 0 1 0 48 16.353V11A1 1 0 0 0 47 10H41A1 1 0 0 0 40 11V13.724L33.653 8.243A1 1 0 0 0 32.347 8.243L10.347 27.243A1 1 0 0 0 10.293 28.707L13.293 31.707A1 1 0 0 0 14.645 31.765L16 30.623V51.142A4 4 0 0 0 13 55 1 1 0 0 0 13.758 55.97L41.758 62.97A1 1 0 0 0 42 63 1 1 0 0 0 42.555 62.832L48.3 59H55V60A1 1 0 0 0 56 61H62A1 1 0 0 0 63 60V44A1 1 0 0 0 62 43M48 45H43.923A4.98 4.98 0 0 0 40.018 46.876L38 49.4V42A5 5 0 0 0 28 42V51H18V32H45.871A10 10 0 0 0 48 33.647ZM36 51H30V42A3 3 0 0 1 36 42ZM43.051 26H21.49L33 16.308 43.013 24.739C43.013 24.826 43 24.912 43 25A10 10 0 0 0 43.051 26M61 25A8 8 0 1 1 53 17 8.01 8.01 0 0 1 61 25M42 12H46V17.871A10 10 0 0 0 45.466 18.445L42 15.452ZM14.058 29.644L12.468 28.054 33 10.321 44.3 20.083A10 10 0 0 0 43.349 22.41L33.642 14.235A1 1 0 0 0 32.352 14.235ZM19.115 28H43.461A10 10 0 0 0 44.353 30H18V28.939ZM48 57A1 1 0 0 0 47.445 57.168L41.813 60.923 15.144 54.255A2 2 0 0 1 17 53H37.217A3.113 3.113 0 0 0 42.328 54.086L45.707 50.707 44.293 49.293 40.914 52.672A1.121 1.121 0 0 1 39 51.879V51.744A1.12 1.12 0 0 1 39.246 51.044L41.579 48.126A2.99 2.99 0 0 1 43.923 47H55V57ZM61 59H57V45H61Z" fill="#333333" data-fill-palette-color="accent"></path><circle cx="33" cy="22" r="2.0" fill="#333333" data-fill-palette-color="accent"></circle><path d="M23 34A3 3 0 0 0 20 37V41A1 1 0 0 0 21 42H25A1 1 0 0 0 26 41V37A3 3 0 0 0 23 34M24 40H22V37A1 1 0 0 1 24 37Z" fill="#333333" data-fill-palette-color="accent"></path><path d="M43 34A3 3 0 0 0 40 37V41A1 1 0 0 0 41 42H45A1 1 0 0 0 46 41V37A3 3 0 0 0 43 34M44 40H42V37A1 1 0 0 1 44 37Z" fill="#333333" data-fill-palette-color="accent"></path><path d="M21 11A10 10 0 1 0 11 21 10.01 10.01 0 0 0 21 11M3 11A8 8 0 1 1 11 19 8.01 8.01 0 0 1 3 11" fill="#333333" data-fill-palette-color="accent"></path><path d="M17.707 8.293L15.707 6.293A1 1 0 0 0 14.293 6.293L9 11.586 7.707 10.293A1 1 0 0 0 6.293 10.293L4.293 12.293A1 1 0 0 0 4.293 13.707L8.293 17.707A1 1 0 0 0 9.707 17.707L17.707 9.707A1 1 0 0 0 17.707 8.293M9 15.586L6.414 13 7 12.414 8.293 13.707A1 1 0 0 0 9.707 13.707L15 8.414 15.586 9Z" fill="#333333" data-fill-palette-color="accent"></path><path d="M52 31V32H54V31A3 3 0 0 0 57 28V27A3 3 0 0 0 54 24V21A1 1 0 0 1 55 22V23H57V22A3 3 0 0 0 54 19V18H52V19A3 3 0 0 0 49 22V23A3 3 0 0 0 52 26V29A1 1 0 0 1 51 28V27H49V28A3 3 0 0 0 52 31M51 23V22A1 1 0 0 1 52 21V24A1 1 0 0 1 51 23M54 26A1 1 0 0 1 55 27V28A1 1 0 0 1 54 29Z" fill="#333333" data-fill-palette-color="accent"></path></svg></g></svg></g></svg></g><defs></defs></svg><rect width="395.52" height="58.993857575132154" fill="none" stroke="none" visibility="hidden"></rect></g></svg></g></svg>