<svg xmlns="http://www.w3.org/2000/svg" version="1.1" xmlns:xlink="http://www.w3.org/1999/xlink" xmlns:svgjs="http://svgjs.dev/svgjs" width="128" height="128" viewBox="0 0 128 128"><g transform="matrix(0.8046875,0,0,0.8046875,12.379882997635676,12.216447702313893)"><svg viewBox="0 0 96 96" data-background-color="#ffffff" preserveAspectRatio="xMidYMid meet" height="128" width="128" xmlns="http://www.w3.org/2000/svg" xmlns:xlink="http://www.w3.org/1999/xlink"><g id="tight-bounds" transform="matrix(1,0,0,1,0.1119537109415063,0.2642817531831696)"><svg viewBox="0 0 95.481 95.4572242548049" height="95.4572242548049" width="95.481"><g><svg viewBox="0 0 95.481 95.4572242548049" height="95.4572242548049" width="95.481"><g><svg viewBox="0 0 95.481 95.4572242548049" height="95.4572242548049" width="95.481"><g id="textblocktransform"><svg viewBox="0 0 95.481 95.4572242548049" height="95.4572242548049" width="95.481" id="textblock"><g><svg viewBox="0 0 95.481 95.4572242548049" height="95.4572242548049" width="95.481"><g><svg viewBox="0 0 95.481 95.4572242548049" height="95.4572242548049" width="95.481"><g><svg xmlns="http://www.w3.org/2000/svg" data-name="Layer 3" viewBox="1 1 62.015442504401754 62.000000025173996" x="0" y="0" height="95.4572242548049" width="95.481" class="icon-icon-0" data-fill-palette-color="accent" id="icon-0"><path d="M62 43H56A1 1 0 0 0 55 44V45H50V34.539A10 10 0 1 0 48 16.353V11A1 1 0 0 0 47 10H41A1 1 0 0 0 40 11V13.724L33.653 8.243A1 1 0 0 0 32.347 8.243L10.347 27.243A1 1 0 0 0 10.293 28.707L13.293 31.707A1 1 0 0 0 14.645 31.765L16 30.623V51.142A4 4 0 0 0 13 55 1 1 0 0 0 13.758 55.97L41.758 62.97A1 1 0 0 0 42 63 1 1 0 0 0 42.555 62.832L48.3 59H55V60A1 1 0 0 0 56 61H62A1 1 0 0 0 63 60V44A1 1 0 0 0 62 43M48 45H43.923A4.98 4.98 0 0 0 40.018 46.876L38 49.4V42A5 5 0 0 0 28 42V51H18V32H45.871A10 10 0 0 0 48 33.647ZM36 51H30V42A3 3 0 0 1 36 42ZM43.051 26H21.49L33 16.308 43.013 24.739C43.013 24.826 43 24.912 43 25A10 10 0 0 0 43.051 26M61 25A8 8 0 1 1 53 17 8.01 8.01 0 0 1 61 25M42 12H46V17.871A10 10 0 0 0 45.466 18.445L42 15.452ZM14.058 29.644L12.468 28.054 33 10.321 44.3 20.083A10 10 0 0 0 43.349 22.41L33.642 14.235A1 1 0 0 0 32.352 14.235ZM19.115 28H43.461A10 10 0 0 0 44.353 30H18V28.939ZM48 57A1 1 0 0 0 47.445 57.168L41.813 60.923 15.144 54.255A2 2 0 0 1 17 53H37.217A3.113 3.113 0 0 0 42.328 54.086L45.707 50.707 44.293 49.293 40.914 52.672A1.121 1.121 0 0 1 39 51.879V51.744A1.12 1.12 0 0 1 39.246 51.044L41.579 48.126A2.99 2.99 0 0 1 43.923 47H55V57ZM61 59H57V45H61Z" fill="#333333" data-fill-palette-color="accent"></path><circle cx="33" cy="22" r="2.0" fill="#333333" data-fill-palette-color="accent"></circle><path d="M23 34A3 3 0 0 0 20 37V41A1 1 0 0 0 21 42H25A1 1 0 0 0 26 41V37A3 3 0 0 0 23 34M24 40H22V37A1 1 0 0 1 24 37Z" fill="#333333" data-fill-palette-color="accent"></path><path d="M43 34A3 3 0 0 0 40 37V41A1 1 0 0 0 41 42H45A1 1 0 0 0 46 41V37A3 3 0 0 0 43 34M44 40H42V37A1 1 0 0 1 44 37Z" fill="#333333" data-fill-palette-color="accent"></path><path d="M21 11A10 10 0 1 0 11 21 10.01 10.01 0 0 0 21 11M3 11A8 8 0 1 1 11 19 8.01 8.01 0 0 1 3 11" fill="#333333" data-fill-palette-color="accent"></path><path d="M17.707 8.293L15.707 6.293A1 1 0 0 0 14.293 6.293L9 11.586 7.707 10.293A1 1 0 0 0 6.293 10.293L4.293 12.293A1 1 0 0 0 4.293 13.707L8.293 17.707A1 1 0 0 0 9.707 17.707L17.707 9.707A1 1 0 0 0 17.707 8.293M9 15.586L6.414 13 7 12.414 8.293 13.707A1 1 0 0 0 9.707 13.707L15 8.414 15.586 9Z" fill="#333333" data-fill-palette-color="accent"></path><path d="M52 31V32H54V31A3 3 0 0 0 57 28V27A3 3 0 0 0 54 24V21A1 1 0 0 1 55 22V23H57V22A3 3 0 0 0 54 19V18H52V19A3 3 0 0 0 49 22V23A3 3 0 0 0 52 26V29A1 1 0 0 1 51 28V27H49V28A3 3 0 0 0 52 31M51 23V22A1 1 0 0 1 52 21V24A1 1 0 0 1 51 23M54 26A1 1 0 0 1 55 27V28A1 1 0 0 1 54 29Z" fill="#333333" data-fill-palette-color="accent"></path></svg></g></svg></g></svg></g></svg></g></svg></g></svg></g><defs></defs></svg><rect width="95.481" height="95.4572242548049" fill="none" stroke="none" visibility="hidden"></rect></g></svg></g></svg>